<svg xmlns="http://www.w3.org/2000/svg" viewBox="0 0 400 400">
  <circle cx="200" cy="200" r="195.077" fill="#312838"/>
  <linearGradient id="a" gradientUnits="userSpaceOnUse" x1="311.923" y1="222.093" x2="293.006" y2="231.737">
    <stop offset="0" stop-color="#00aca2"/>
    <stop offset="1" stop-color="#0090a3"/>
  </linearGradient>
  <path d="M288.204 229.57c.558-.63 1.118-1.258 1.65-1.908 4.75 10.895 9.65 17.948 10.045 18.51a11.813 11.813 0 009.677 5.017c2.354 0 4.732-.701 6.802-2.16 5.34-3.762 6.618-11.14 2.857-16.478-.075-.107-3.888-5.696-7.634-14.254l-23.67-13.317.273 24.59z" fill="url(#a)"/>
  <linearGradient id="b" gradientUnits="userSpaceOnUse" x1="292.261" y1="200.979" x2="311.178" y2="207.655">
    <stop offset="0" stop-color="#00d6bf"/>
    <stop offset="1" stop-color="#00dcbd"/>
  </linearGradient>
  <path d="M311.6 218.297c-2.824-6.452-5.602-14.593-6.72-23.356l-16.95 10.039 23.67 13.317z" fill="url(#b)"/>
  <linearGradient id="c" gradientUnits="userSpaceOnUse" x1="285.222" y1="197.573" x2="311.928" y2="127.84">
    <stop offset="0" stop-color="#00e5cc"/>
    <stop offset="1" stop-color="#00e9a3"/>
  </linearGradient>
  <path d="M304.88 194.94a61.907 61.907 0 01-.519-7.83c0-23.816 14.742-45.252 14.874-45.44 3.761-5.34 2.482-12.718-2.857-16.48-5.34-3.76-12.717-2.484-16.48 2.858-.395.562-5.294 7.615-10.043 18.51a64.631 64.631 0 00-2.608-2.973l.683 61.395 16.95-10.04z" fill="url(#c)"/>
  <linearGradient id="d" gradientUnits="userSpaceOnUse" x1="286.874" y1="220.344" x2="228.488" y2="250.435">
    <stop offset=".383" stop-color="#00e7d0"/>
    <stop offset="1" stop-color="#3acacd"/>
  </linearGradient>
  <path d="M267.123 217.304a40.452 40.452 0 01-13.354 7.909l-36.566 21.657a63.723 63.723 0 0023.08 4.317c19.054 0 36.174-8.374 47.921-21.618l-.274-24.59-20.807 12.325z" fill="url(#d)"/>
  <path d="M267.123 217.304l20.808-12.324-9.264-5.212a40.526 40.526 0 01-11.544 17.536z" fill="#00a3a8"/>
  <linearGradient id="e" gradientUnits="userSpaceOnUse" x1="206.855" y1="159.675" x2="200.659" y2="166.756">
    <stop offset="0" stop-color="#3383a7"/>
    <stop offset="1" stop-color="#3a7ea6"/>
  </linearGradient>
  <path d="M209.556 160.885l-7.575-4.261.19 17.027a40.43 40.43 0 017.385-12.766z" fill="url(#e)"/>
  <linearGradient id="f" gradientUnits="userSpaceOnUse" x1="237.612" y1="218.355" x2="205.275" y2="225.092">
    <stop offset=".392" stop-color="#3681a6"/>
    <stop offset="1" stop-color="#4e66a5"/>
  </linearGradient>
  <path d="M240.282 227.535c-17.255 0-32.014-10.873-37.803-26.124l.42 37.691a63.992 63.992 0 0014.304 7.768l36.566-21.657a40.236 40.236 0 01-13.487 2.322z" fill="url(#f)"/>
  <linearGradient id="g" gradientUnits="userSpaceOnUse" x1="289.207" y1="159.605" x2="218.731" y2="181.118">
    <stop offset="0" stop-color="#00968e"/>
    <stop offset=".322" stop-color="#1c7f91"/>
    <stop offset=".76" stop-color="#3d6494"/>
    <stop offset="1" stop-color="#4a5a95"/>
  </linearGradient>
  <path d="M255.558 124.89l-53.577 31.733 7.575 4.262c7.42-8.681 18.438-14.2 30.726-14.2 22.291 0 40.426 18.134 40.426 40.425 0 4.42-.723 8.674-2.04 12.658l9.263 5.212-.683-61.394c-8.385-9.043-19.338-15.66-31.69-18.695z" fill="url(#g)"/>
  <linearGradient id="h" gradientUnits="userSpaceOnUse" x1="245.536" y1="120.1" x2="200.702" y2="146.935">
    <stop offset="0" stop-color="#00beb1"/>
    <stop offset="1" stop-color="#069cb8"/>
  </linearGradient>
  <path d="M255.558 124.89a63.935 63.935 0 00-15.275-1.857c-14.453 0-27.8 4.814-38.532 12.917l.23 20.674 53.577-31.733z" fill="url(#h)"/>
  <linearGradient id="i" gradientUnits="userSpaceOnUse" x1="177.634" y1="235.239" x2="118.698" y2="242.482">
    <stop offset="0" stop-color="#5b4fa6"/>
    <stop offset="1" stop-color="#68199f"/>
  </linearGradient>
  <path d="M117.62 251.187h52.475c5.258 0 9.709-3.434 11.247-8.18l-27.502-15.472h-36.482l.263 23.652z" fill="url(#i)"/>
  <linearGradient id="j" gradientUnits="userSpaceOnUse" x1="153.84" y1="235.271" x2="181.921" y2="235.271">
    <stop offset="0" stop-color="#586bb3"/>
    <stop offset="1" stop-color="#4d7db4"/>
  </linearGradient>
  <path d="M181.921 239.361c0-6.532-5.295-11.826-11.826-11.826H153.84l27.502 15.473c.372-1.15.58-2.374.58-3.647z" fill="url(#j)"/>
  <linearGradient id="k" gradientUnits="userSpaceOnUse" x1="213.303" y1="192.496" x2="188.42" y2="204.788">
    <stop offset="0" stop-color="#00b3c1"/>
    <stop offset=".999" stop-color="#4486b4"/>
  </linearGradient>
  <path d="M199.858 187.11c0-4.718.82-9.246 2.312-13.459l-.19-17.028-23.609 13.984a63.925 63.925 0 00-2.165 16.503c0 21.387 10.542 40.347 26.692 51.992l-.419-37.691a40.212 40.212 0 01-2.621-14.301z" fill="url(#k)"/>
  <linearGradient id="l" gradientUnits="userSpaceOnUse" x1="197.508" y1="155.311" x2="181.918" y2="160.408">
    <stop offset="0" stop-color="#1899b6"/>
    <stop offset="1" stop-color="#447aac"/>
  </linearGradient>
  <path d="M188.7 149.151a63.86 63.86 0 00-10.329 21.456l23.61-13.983-13.282-7.473z" fill="url(#l)"/>
  <linearGradient id="m" gradientUnits="userSpaceOnUse" x1="193.192" y1="142.753" x2="202.028" y2="146.353">
    <stop offset="0" stop-color="#30cdc9"/>
    <stop offset="1" stop-color="#37dad8"/>
  </linearGradient>
  <path d="M201.75 135.95a64.614 64.614 0 00-13.05 13.201l13.28 7.473-.23-20.674z" fill="url(#m)"/>
  <linearGradient id="n" gradientUnits="userSpaceOnUse" x1="116.49" y1="235.048" x2="69.736" y2="247.23">
    <stop offset="0" stop-color="#684db3"/>
    <stop offset="1" stop-color="#6f26a8"/>
  </linearGradient>
  <path d="M82.254 227.535l-16.332 9.673a11.855 11.855 0 00-.205 2.153c0 6.532 5.295 11.826 11.826 11.826h40.078l-.263-23.652H82.254z" fill="url(#n)"/>
  <path d="M77.543 227.535c-5.795 0-10.608 4.171-11.621 9.673l16.333-9.673h-4.712z" fill="#7143b3"/>
  <g>
    <linearGradient id="o" gradientUnits="userSpaceOnUse" x1="290.318" y1="252.669" x2="329.537" y2="231.391">
      <stop offset="0" stop-color="#e20083"/>
      <stop offset="1" stop-color="#db0082"/>
    </linearGradient>
    <path d="M319.235 232.55c3.761 5.34 2.482 12.717-2.857 16.48a11.776 11.776 0 01-6.802 2.159 11.813 11.813 0 01-9.677-5.017c-.396-.562-5.295-7.615-10.044-18.51-.534.65-1.093 1.278-1.651 1.907l.252 22.695c.415.625.729 1.081.905 1.333a24.758 24.758 0 0020.215 10.482 24.58 24.58 0 0014.226-4.512c9.588-6.756 12.89-19.137 8.633-29.549L311.6 218.298c3.747 8.559 7.56 14.147 7.635 14.254z" fill="url(#o)"/>
    <linearGradient id="p" gradientUnits="userSpaceOnUse" x1="323.445" y1="228.701" x2="310.928" y2="192.82">
      <stop offset="0" stop-color="#f500a4"/>
      <stop offset="1" stop-color="#f2008d"/>
    </linearGradient>
    <path d="M311.6 218.297l20.835 11.722a24.576 24.576 0 00-2.59-4.788c-.581-.872-12.377-18.836-12.584-37.623l-12.38 7.333c1.117 8.763 3.895 16.904 6.72 23.356z" fill="url(#p)"/>
    <linearGradient id="q" gradientUnits="userSpaceOnUse" x1="326.262" y1="176.18" x2="296.639" y2="122.358">
      <stop offset="0" stop-color="#f73a91"/>
      <stop offset="1" stop-color="#fac263"/>
    </linearGradient>
    <path d="M289.351 120.638a78.524 78.524 0 00-2.32 3.54l.217 19.408a64.631 64.631 0 012.607 2.973c4.75-10.896 9.648-17.949 10.044-18.511 3.762-5.342 11.139-6.619 16.479-2.857 5.34 3.761 6.618 11.14 2.857 16.479-.132.188-14.874 21.624-14.874 45.44 0 2.647.193 5.264.52 7.83l12.38-7.332c-.002-.166-.01-.332-.01-.498 0-19.132 12.075-37.347 12.586-38.107 3.293-4.718 4.81-10.31 4.379-15.978l-35.867-20.18a24.74 24.74 0 00-8.998 7.793z" fill="url(#q)"/>
    <linearGradient id="r" gradientUnits="userSpaceOnUse" x1="304.301" y1="109.744" x2="334.341" y2="127.268">
      <stop offset="0" stop-color="#f5a759"/>
      <stop offset=".68" stop-color="#f1326a"/>
      <stop offset="1" stop-color="#ef0071"/>
    </linearGradient>
    <path d="M298.349 112.846l35.867 20.179a25.18 25.18 0 00-.296-2.389c-1.128-6.505-4.722-12.181-10.12-15.983a24.575 24.575 0 00-14.224-4.512c-3.956 0-7.795.955-11.227 2.705z" fill="url(#r)"/>
    <linearGradient id="s" gradientUnits="userSpaceOnUse" x1="217.047" y1="237.585" x2="287.141" y2="252.605">
      <stop offset="0" stop-color="#fbc46c"/>
      <stop offset=".085" stop-color="#fcb76d"/>
      <stop offset=".5" stop-color="#ff7873"/>
      <stop offset=".571" stop-color="#ff6f7b"/>
      <stop offset=".847" stop-color="#fe4f97"/>
      <stop offset="1" stop-color="#fe43a2"/>
    </linearGradient>
    <path d="M240.282 251.187a63.723 63.723 0 01-23.079-4.317l-13.435 7.958a76.396 76.396 0 0036.514 9.25c16.794 0 32.834-5.427 45.992-15.271a99.13 99.13 0 002.183 3.457l-.253-22.695c-11.747 13.244-28.867 21.618-47.922 21.618z" fill="url(#s)"/>
    <path d="M267.123 217.304l-13.354 7.909a40.452 40.452 0 0013.354-7.91z" fill="#f48886"/>
    <linearGradient id="t" gradientUnits="userSpaceOnUse" x1="200.843" y1="179.312" x2="263.904" y2="220.453">
      <stop offset=".21" stop-color="#fba657"/>
      <stop offset=".61" stop-color="#ff5058"/>
      <stop offset=".784" stop-color="#f4006f"/>
    </linearGradient>
    <path d="M202.479 201.411c5.79 15.252 20.548 26.124 37.803 26.124 4.729 0 9.266-.824 13.487-2.322l13.354-7.91a40.526 40.526 0 0011.544-17.535l-11.566-6.507c-2.805 12.227-13.752 21.384-26.818 21.384-15.183 0-27.535-12.353-27.535-27.535 0-7.732 3.214-14.718 8.363-19.724l-11.555-6.5a40.43 40.43 0 00-7.386 12.765l.309 27.76z" fill="url(#t)"/>
    <linearGradient id="u" gradientUnits="userSpaceOnUse" x1="202.663" y1="246.742" x2="213.928" y2="250.497">
      <stop offset="0" stop-color="#ff8759"/>
      <stop offset="1" stop-color="#fc5258"/>
    </linearGradient>
    <path d="M202.898 239.102l.17 15.336c.234.13.465.263.7.39l13.436-7.958a63.989 63.989 0 01-14.306-7.768z" fill="url(#u)"/>
    <linearGradient id="v" gradientUnits="userSpaceOnUse" x1="265.868" y1="120.151" x2="286.126" y2="136.514">
      <stop offset="0" stop-color="#ff4e53"/>
      <stop offset="1" stop-color="#fb0050"/>
    </linearGradient>
    <path d="M287.248 143.586l-.216-19.407c-.241.387-.491.791-.758 1.234a76.612 76.612 0 00-16.044-9.212l-14.672 8.69c12.352 3.034 23.305 9.652 31.69 18.695z" fill="url(#v)"/>
    <linearGradient id="w" gradientUnits="userSpaceOnUse" x1="215.625" y1="152.107" x2="281.213" y2="180.91">
      <stop offset=".167" stop-color="#fc7454"/>
      <stop offset=".555" stop-color="#ff4852"/>
      <stop offset=".871" stop-color="#ea006b"/>
    </linearGradient>
    <path d="M240.282 159.575c15.184 0 27.536 12.352 27.536 27.535 0 2.117-.262 4.17-.717 6.151l11.566 6.507a40.244 40.244 0 002.041-12.658c0-22.29-18.135-40.425-40.426-40.425-12.288 0-23.306 5.519-30.726 14.2l11.555 6.501c4.962-4.825 11.72-7.811 19.172-7.811z" fill="url(#w)"/>
    <linearGradient id="x" gradientUnits="userSpaceOnUse" x1="201.58" y1="123.046" x2="270.23" y2="123.046">
      <stop offset="0" stop-color="#f0b354"/>
      <stop offset="1" stop-color="#faa656"/>
    </linearGradient>
    <path d="M240.282 123.033c5.265 0 10.377.654 15.276 1.858l14.672-8.69a76.769 76.769 0 00-29.948-6.058 76.47 76.47 0 00-38.702 10.48l.17 15.327c10.733-8.103 24.08-12.917 38.532-12.917z" fill="url(#x)"/>
    <linearGradient id="y" gradientUnits="userSpaceOnUse" x1="117.621" y1="253.542" x2="192.65" y2="253.542">
      <stop offset="0" stop-color="#f7a954"/>
      <stop offset="1" stop-color="#f69d56"/>
    </linearGradient>
    <path d="M170.095 251.187h-52.474l.143 12.89h52.331c10.062 0 18.705-6.059 22.555-14.708l-11.308-6.361c-1.538 4.745-5.99 8.18-11.247 8.18z" fill="url(#y)"/>
    <linearGradient id="z" gradientUnits="userSpaceOnUse" x1="117.838" y1="219.07" x2="151.751" y2="229.935">
      <stop offset="0" stop-color="#e9b04e"/>
      <stop offset="1" stop-color="#f6ac54"/>
    </linearGradient>
    <path fill="url(#z)" d="M153.84 227.535l-22.911-12.89h-13.715l.144 12.89z"/>
    <path d="M199.858 187.11c0 5.034.932 9.852 2.621 14.301l-.309-27.76a40.227 40.227 0 00-2.312 13.459z" fill="#ffbc5e"/>
    <linearGradient id="A" gradientUnits="userSpaceOnUse" x1="150.289" y1="192.378" x2="212.873" y2="223.669">
      <stop offset="0" stop-color="#fdcb59"/>
      <stop offset=".346" stop-color="#fcc659"/>
      <stop offset=".727" stop-color="#f9b95a"/>
      <stop offset="1" stop-color="#f6ab5b"/>
    </linearGradient>
    <path d="M176.206 187.11c0-5.705.76-11.235 2.165-16.503l-14.66 8.683a77.524 77.524 0 00-.395 7.82c0 9.7 1.822 18.979 5.112 27.535h-37.499l22.911 12.89h16.255c6.531 0 11.826 5.294 11.826 11.826 0 1.273-.207 2.497-.579 3.647l11.308 6.361c.206-.463.408-.93.587-1.408a77.464 77.464 0 009.832 6.477l-.17-15.336c-16.15-11.645-26.693-30.605-26.693-51.992z" fill="url(#A)"/>
    <linearGradient id="B" gradientUnits="userSpaceOnUse" x1="184.782" y1="148.088" x2="163.086" y2="175.208">
      <stop offset="0" stop-color="#f7b653"/>
      <stop offset="1" stop-color="#efb352"/>
    </linearGradient>
    <path d="M188.7 149.151l-11.291-6.352c-7.445 10.532-12.33 22.996-13.698 36.49l14.66-8.682a63.861 63.861 0 0110.328-21.456z" fill="url(#B)"/>
    <path d="M201.75 135.95l-.17-15.327A77.532 77.532 0 00177.41 142.8l11.29 6.352a64.617 64.617 0 0113.052-13.2z" fill="#fad361"/>
    <linearGradient id="C" gradientUnits="userSpaceOnUse" x1="53.404" y1="250.643" x2="117.764" y2="250.643">
      <stop offset="0" stop-color="#efd04f"/>
      <stop offset="1" stop-color="#f4be57"/>
    </linearGradient>
    <path d="M77.543 251.187c-6.531 0-11.826-5.294-11.826-11.826 0-.736.076-1.454.205-2.153l-12.518 7.414c2.42 11.108 12.317 19.455 24.14 19.455h40.22l-.143-12.89H77.543z" fill="url(#C)"/>
    <linearGradient id="D" gradientUnits="userSpaceOnUse" x1="82.254" y1="221.09" x2="117.358" y2="221.09">
      <stop offset="0" stop-color="#f1cd53"/>
      <stop offset="1" stop-color="#f5c855"/>
    </linearGradient>
    <path fill="url(#D)" d="M117.358 227.535l-.144-12.89h-13.196l-21.764 12.89z"/>
    <linearGradient id="E" gradientUnits="userSpaceOnUse" x1="135.046" y1="193.085" x2="175.544" y2="172.671">
      <stop offset="0" stop-color="#f6dd53"/>
      <stop offset="1" stop-color="#f6d659"/>
    </linearGradient>
    <path d="M77.543 227.535h4.712l21.763-12.89H77.543c-13.629 0-24.716 11.087-24.716 24.716 0 1.807.207 3.564.577 5.261l12.518-7.414c1.013-5.502 5.826-9.673 11.621-9.673z" fill="url(#E)"/>
  </g>
</svg>
